<?xml version="1.0" encoding="UTF-8" standalone="no"?>
<!-- Created with Inkscape (http://www.inkscape.org/) -->

<svg
   xmlns:dc="http://purl.org/dc/elements/1.1/"
   xmlns:cc="http://creativecommons.org/ns#"
   xmlns:rdf="http://www.w3.org/1999/02/22-rdf-syntax-ns#"
   xmlns:svg="http://www.w3.org/2000/svg"
   xmlns="http://www.w3.org/2000/svg"
   xmlns:sodipodi="http://sodipodi.sourceforge.net/DTD/sodipodi-0.dtd"
   xmlns:inkscape="http://www.inkscape.org/namespaces/inkscape"
   width="744.09448819"
   height="1052.3622047"
   id="svg2"
   version="1.1"
   inkscape:version="0.48.2 r9819"
   sodipodi:docname="body.svg">
  <defs
     id="defs4" />
  <sodipodi:namedview
     id="base"
     pagecolor="#ffffff"
     bordercolor="#666666"
     borderopacity="1.0"
     inkscape:pageopacity="0.0"
     inkscape:pageshadow="2"
     inkscape:zoom="0.49497475"
     inkscape:cx="123.52638"
     inkscape:cy="291.42857"
     inkscape:document-units="px"
     inkscape:current-layer="layer1"
     showgrid="false"
     inkscape:window-width="1366"
     inkscape:window-height="720"
     inkscape:window-x="0"
     inkscape:window-y="0"
     inkscape:window-maximized="1" />
  <metadata
     id="metadata7">
    <rdf:RDF>
      <cc:Work
         rdf:about="">
        <dc:format>image/svg+xml</dc:format>
        <dc:type
           rdf:resource="http://purl.org/dc/dcmitype/StillImage" />
        <dc:title></dc:title>
      </cc:Work>
    </rdf:RDF>
  </metadata>
  <g
     inkscape:label="Layer 1"
     inkscape:groupmode="layer"
     id="layer1">
    <g
       id="man1"
       inkscape:label="#g3768"
       transform="translate(-86.873119,-155.56349)"
       inkscape:export-xdpi="90"
       inkscape:export-ydpi="90"
       style="stroke:none;fill:#d2d2d2;fill-opacity:1;stroke-opacity:1">
      <path
         d="m 245.71429,242.36218 c 0,19.72446 -14.71064,35.71429 -32.85714,35.71429 -18.1465,0 -32.85715,-15.98983 -32.85715,-35.71429 0,-19.72445 14.71065,-35.71428 32.85715,-35.71428 18.1465,0 32.85714,15.98983 32.85714,35.71428 z"
         sodipodi:ry="35.714287"
         sodipodi:rx="32.857143"
         sodipodi:cy="242.36218"
         sodipodi:cx="212.85715"
         id="path2985"
         style="fill:#d2d2d2;fill-opacity:1;fill-rule:evenodd;stroke:none;stroke-opacity:1"
         sodipodi:type="arc"
         transform="matrix(0.8673222,-0.49774713,0.60333523,1.051309,-114.95376,85.937526)" />
      <path
         d="m 268.57143,358.07648 c 0,56.80643 -26.22332,102.85714 -58.57143,102.85714 -32.34811,0 -58.57143,-46.05071 -58.57143,-102.85714 0,-56.80643 26.22332,-102.85714 58.57143,-102.85714 32.34811,0 58.57143,46.05071 58.57143,102.85714 z"
         sodipodi:ry="102.85714"
         sodipodi:rx="58.57143"
         sodipodi:cy="358.07648"
         sodipodi:cx="210"
         id="path2987"
         style="fill:#d2d2d2;fill-opacity:1;fill-rule:evenodd;stroke:none;stroke-opacity:1"
         sodipodi:type="arc"
         transform="matrix(0.77579542,0,0,0.68573031,46.07281,147.88793)" />
      <path
         transform="translate(5.7142857,-25.714286)"
         d="m 197.14286,535.2193 c 0,50.49461 -10.23349,91.42857 -22.85714,91.42857 -12.62365,0 -22.85714,-40.93396 -22.85714,-91.42857 0,-50.49461 10.23349,-91.42857 22.85714,-91.42857 12.62365,0 22.85714,40.93396 22.85714,91.42857 z"
         sodipodi:ry="91.428574"
         sodipodi:rx="22.857143"
         sodipodi:cy="535.2193"
         sodipodi:cx="174.28572"
         id="path2989"
         style="fill:#d2d2d2;fill-opacity:1;fill-rule:evenodd;stroke:none;stroke-opacity:1"
         sodipodi:type="arc" />
      <path
         transform="matrix(0.80545484,-0.59265715,0.59265715,0.80545484,-135.15402,226.24746)"
         d="m 300.00001,369.50504 c 0,39.44891 -9.59389,71.42857 -21.42857,71.42857 -11.83467,0 -21.42857,-31.97966 -21.42857,-71.42857 0,-39.44892 9.5939,-71.42858 21.42857,-71.42858 11.83468,0 21.42857,31.97966 21.42857,71.42858 z"
         sodipodi:ry="71.428574"
         sodipodi:rx="21.428572"
         sodipodi:cy="369.50504"
         sodipodi:cx="278.57144"
         id="path2996"
         style="fill:#d2d2d2;fill-opacity:1;fill-rule:evenodd;stroke:none;stroke-opacity:1"
         sodipodi:type="arc" />
      <path
         transform="matrix(0.83180269,-0.55507142,0.55507142,0.83180269,-126.53326,89.518194)"
         d="m 168.57143,332.36218 c 0,11.0457 -16.62942,20 -37.14286,20 -20.51343,0 -37.142853,-8.9543 -37.142853,-20 0,-11.04569 16.629423,-20 37.142853,-20 20.51344,0 37.14286,8.95431 37.14286,20 z"
         sodipodi:ry="20"
         sodipodi:rx="37.142857"
         sodipodi:cy="332.36218"
         sodipodi:cx="131.42857"
         id="path2998"
         style="fill:#d2d2d2;fill-opacity:1;fill-rule:evenodd;stroke:none;stroke-opacity:1"
         sodipodi:type="arc" />
      <path
         sodipodi:type="arc"
         style="fill:#d2d2d2;fill-opacity:1;fill-rule:evenodd;stroke:none;stroke-opacity:1"
         id="path3112"
         sodipodi:cx="131.42857"
         sodipodi:cy="332.36218"
         sodipodi:rx="37.142857"
         sodipodi:ry="20"
         d="m 168.57143,332.36218 c 0,11.0457 -16.62942,20 -37.14286,20 -20.51343,0 -37.142853,-8.9543 -37.142853,-20 0,-11.04569 16.629423,-20 37.142853,-20 20.51344,0 37.14286,8.95431 37.14286,20 z"
         transform="matrix(0.64371632,0.7652642,-0.7652642,0.64371632,432.98078,-14.42777)"
         inkscape:transform-center-x="-7.0710678"
         inkscape:transform-center-y="-31.211469" />
      <path
         sodipodi:type="arc"
         style="fill:#d2d2d2;fill-opacity:1;fill-rule:evenodd;stroke:none;stroke-opacity:1"
         id="path3114"
         sodipodi:cx="278.57144"
         sodipodi:cy="369.50504"
         sodipodi:rx="21.428572"
         sodipodi:ry="71.428574"
         d="m 300.00001,369.50504 c 0,39.44891 -9.59389,71.42857 -21.42857,71.42857 -11.83467,0 -21.42857,-31.97966 -21.42857,-71.42857 0,-39.44892 9.5939,-71.42858 21.42857,-71.42858 11.83468,0 21.42857,31.97966 21.42857,71.42858 z"
         transform="matrix(0.99503004,0.09957514,-0.09957514,0.99503004,-99.866267,-24.51585)" />
      <path
         sodipodi:type="arc"
         style="fill:#d2d2d2;fill-opacity:1;fill-rule:evenodd;stroke:none;stroke-opacity:1"
         id="path3116"
         sodipodi:cx="131.42857"
         sodipodi:cy="332.36218"
         sodipodi:rx="37.142857"
         sodipodi:ry="20"
         d="m 168.57143,332.36218 c 0,11.0457 -16.62942,20 -37.14286,20 -20.51343,0 -37.142853,-8.9543 -37.142853,-20 0,-11.04569 16.629423,-20 37.142853,-20 20.51344,0 37.14286,8.95431 37.14286,20 z"
         transform="matrix(0.83180269,-0.55507142,0.55507142,0.83180269,-129.56372,400.64518)" />
      <path
         inkscape:transform-center-y="-31.211469"
         inkscape:transform-center-x="-7.0710678"
         transform="matrix(0.64371632,0.7652642,-0.7652642,0.64371632,422.87925,285.58753)"
         d="m 168.57143,332.36218 c 0,11.0457 -16.62942,20 -37.14286,20 -20.51343,0 -37.142853,-8.9543 -37.142853,-20 0,-11.04569 16.629423,-20 37.142853,-20 20.51344,0 37.14286,8.95431 37.14286,20 z"
         sodipodi:ry="20"
         sodipodi:rx="37.142857"
         sodipodi:cy="332.36218"
         sodipodi:cx="131.42857"
         id="path3118"
         style="fill:#d2d2d2;fill-opacity:1;fill-rule:evenodd;stroke:none;stroke-opacity:1"
         sodipodi:type="arc" />
      <path
         sodipodi:type="arc"
         style="fill:#d2d2d2;fill-opacity:1;fill-rule:evenodd;stroke:none;stroke-opacity:1"
         id="path3120"
         sodipodi:cx="174.28572"
         sodipodi:cy="535.2193"
         sodipodi:rx="22.857143"
         sodipodi:ry="91.428574"
         d="m 197.14286,535.2193 c 0,50.49461 -10.23349,91.42857 -22.85714,91.42857 -12.62365,0 -22.85714,-40.93396 -22.85714,-91.42857 0,-50.49461 10.23349,-91.42857 22.85714,-91.42857 12.62365,0 22.85714,40.93396 22.85714,91.42857 z"
         transform="translate(65.313286,-21.673676)" />
      <path
         transform="matrix(1,0,0,0.68573031,1.0101526,80.207707)"
         sodipodi:type="arc"
         style="fill:#d2d2d2;fill-opacity:1;fill-rule:evenodd;stroke:none;stroke-opacity:1"
         id="path3122"
         sodipodi:cx="210"
         sodipodi:cy="358.07648"
         sodipodi:rx="58.57143"
         sodipodi:ry="102.85714"
         d="m 268.57143,358.07648 c 0,56.80643 -26.22332,102.85714 -58.57143,102.85714 -32.34811,0 -58.57143,-46.05071 -58.57143,-102.85714 0,-56.80643 26.22332,-102.85714 58.57143,-102.85714 32.34811,0 58.57143,46.05071 58.57143,102.85714 z" />
    </g>
    <g
       inkscape:label="#g3768"
       id="man2"
       transform="translate(172.73609,-153.54319)"
       inkscape:export-xdpi="90"
       inkscape:export-ydpi="90"
       style="stroke:none;fill:#d2d2d2;fill-opacity:1">
      <path
         transform="matrix(0.8673222,-0.49774713,0.60333523,1.051309,-114.95376,85.937526)"
         sodipodi:type="arc"
         style="fill:#d2d2d2;fill-opacity:1;fill-rule:evenodd;stroke:none"
         id="path3126"
         sodipodi:cx="212.85715"
         sodipodi:cy="242.36218"
         sodipodi:rx="32.857143"
         sodipodi:ry="35.714287"
         d="m 245.71429,242.36218 c 0,19.72446 -14.71064,35.71429 -32.85714,35.71429 -18.1465,0 -32.85715,-15.98983 -32.85715,-35.71429 0,-19.72445 14.71065,-35.71428 32.85715,-35.71428 18.1465,0 32.85714,15.98983 32.85714,35.71428 z" />
      <path
         transform="matrix(0.77579542,0,0,0.68573031,46.07281,147.88793)"
         sodipodi:type="arc"
         style="fill:#d2d2d2;fill-opacity:1;fill-rule:evenodd;stroke:none"
         id="path3128"
         sodipodi:cx="210"
         sodipodi:cy="358.07648"
         sodipodi:rx="58.57143"
         sodipodi:ry="102.85714"
         d="m 268.57143,358.07648 c 0,56.80643 -26.22332,102.85714 -58.57143,102.85714 -32.34811,0 -58.57143,-46.05071 -58.57143,-102.85714 0,-56.80643 26.22332,-102.85714 58.57143,-102.85714 32.34811,0 58.57143,46.05071 58.57143,102.85714 z" />
      <path
         sodipodi:type="arc"
         style="fill:#d2d2d2;fill-opacity:1;fill-rule:evenodd;stroke:none"
         id="path3130"
         sodipodi:cx="174.28572"
         sodipodi:cy="535.2193"
         sodipodi:rx="22.857143"
         sodipodi:ry="91.428574"
         d="m 197.14286,535.2193 c 0,50.49461 -10.23349,91.42857 -22.85714,91.42857 -12.62365,0 -22.85714,-40.93396 -22.85714,-91.42857 0,-50.49461 10.23349,-91.42857 22.85714,-91.42857 12.62365,0 22.85714,40.93396 22.85714,91.42857 z"
         transform="translate(5.7142857,-25.714286)" />
      <path
         sodipodi:type="arc"
         style="fill:#d2d2d2;fill-opacity:1;fill-rule:evenodd;stroke:none"
         id="path3132"
         sodipodi:cx="278.57144"
         sodipodi:cy="369.50504"
         sodipodi:rx="21.428572"
         sodipodi:ry="71.428574"
         d="m 300.00001,369.50504 c 0,39.44891 -9.59389,71.42857 -21.42857,71.42857 -11.83467,0 -21.42857,-31.97966 -21.42857,-71.42857 0,-39.44892 9.5939,-71.42858 21.42857,-71.42858 11.83468,0 21.42857,31.97966 21.42857,71.42858 z"
         transform="matrix(0.98641802,0.16425433,-0.16425433,0.98641802,56.741766,-31.270218)" />
      <path
         sodipodi:type="arc"
         style="fill:#d2d2d2;fill-opacity:1;fill-rule:evenodd;stroke:none"
         id="path3134"
         sodipodi:cx="131.42857"
         sodipodi:cy="332.36218"
         sodipodi:rx="37.142857"
         sodipodi:ry="20"
         d="m 168.57143,332.36218 c 0,11.0457 -16.62942,20 -37.14286,20 -20.51343,0 -37.142853,-8.9543 -37.142853,-20 0,-11.04569 16.629423,-20 37.142853,-20 20.51344,0 37.14286,8.95431 37.14286,20 z"
         transform="matrix(0.83180269,-0.55507142,0.55507142,0.83180269,-126.53326,89.518194)" />
      <path
         inkscape:transform-center-y="-31.211469"
         inkscape:transform-center-x="-7.0710678"
         transform="matrix(0.64371632,0.7652642,-0.7652642,0.64371632,432.98078,-14.42777)"
         d="m 168.57143,332.36218 c 0,11.0457 -16.62942,20 -37.14286,20 -20.51343,0 -37.142853,-8.9543 -37.142853,-20 0,-11.04569 16.629423,-20 37.142853,-20 20.51344,0 37.14286,8.95431 37.14286,20 z"
         sodipodi:ry="20"
         sodipodi:rx="37.142857"
         sodipodi:cy="332.36218"
         sodipodi:cx="131.42857"
         id="path3136"
         style="fill:#d2d2d2;fill-opacity:1;fill-rule:evenodd;stroke:none"
         sodipodi:type="arc" />
      <path
         transform="matrix(0.93349383,-0.35859344,0.35859344,0.93349383,-232.82673,129.89538)"
         d="m 300.00001,369.50504 a 21.428572,71.428574 0 1 1 -42.85714,0 21.428572,71.428574 0 1 1 42.85714,0 z"
         sodipodi:ry="71.428574"
         sodipodi:rx="21.428572"
         sodipodi:cy="369.50504"
         sodipodi:cx="278.57144"
         id="path3138"
         style="fill:#d2d2d2;fill-opacity:1;fill-rule:evenodd;stroke:none"
         sodipodi:type="arc" />
      <path
         transform="matrix(-0.82933994,-0.55507142,-0.553428,0.83180269,552.21579,399.63503)"
         d="m 168.57143,332.36218 c 0,11.0457 -16.62942,20 -37.14286,20 -20.51343,0 -37.142853,-8.9543 -37.142853,-20 0,-11.04569 16.629423,-20 37.142853,-20 20.51344,0 37.14286,8.95431 37.14286,20 z"
         sodipodi:ry="20"
         sodipodi:rx="37.142857"
         sodipodi:cy="332.36218"
         sodipodi:cx="131.42857"
         id="path3140"
         style="fill:#d2d2d2;fill-opacity:1;fill-rule:evenodd;stroke:none"
         sodipodi:type="arc" />
      <path
         sodipodi:type="arc"
         style="fill:#d2d2d2;fill-opacity:1;fill-rule:evenodd;stroke:none"
         id="path3142"
         sodipodi:cx="131.42857"
         sodipodi:cy="332.36218"
         sodipodi:rx="37.142857"
         sodipodi:ry="20"
         d="m 168.57143,332.36218 c 0,11.0457 -16.62942,20 -37.14286,20 -20.51343,0 -37.142853,-8.9543 -37.142853,-20 0,-11.04569 16.629423,-20 37.142853,-20 20.51344,0 37.14286,8.95431 37.14286,20 z"
         transform="matrix(0.50577068,0.86266797,-0.86266797,0.50577068,411.86349,326.32956)"
         inkscape:transform-center-x="-12.22205"
         inkscape:transform-center-y="-29.576634" />
      <path
         transform="translate(65.313286,-21.673676)"
         d="m 197.14286,535.2193 c 0,50.49461 -10.23349,91.42857 -22.85714,91.42857 -12.62365,0 -22.85714,-40.93396 -22.85714,-91.42857 0,-50.49461 10.23349,-91.42857 22.85714,-91.42857 12.62365,0 22.85714,40.93396 22.85714,91.42857 z"
         sodipodi:ry="91.428574"
         sodipodi:rx="22.857143"
         sodipodi:cy="535.2193"
         sodipodi:cx="174.28572"
         id="path3144"
         style="fill:#d2d2d2;fill-opacity:1;fill-rule:evenodd;stroke:none"
         sodipodi:type="arc" />
      <path
         d="m 268.57143,358.07648 c 0,56.80643 -26.22332,102.85714 -58.57143,102.85714 -32.34811,0 -58.57143,-46.05071 -58.57143,-102.85714 0,-56.80643 26.22332,-102.85714 58.57143,-102.85714 32.34811,0 58.57143,46.05071 58.57143,102.85714 z"
         sodipodi:ry="102.85714"
         sodipodi:rx="58.57143"
         sodipodi:cy="358.07648"
         sodipodi:cx="210"
         id="path3146"
         style="fill:#d2d2d2;fill-opacity:1;fill-rule:evenodd;stroke:none"
         sodipodi:type="arc"
         transform="matrix(1,0,0,0.68573031,1.0101526,80.207707)" />
    </g>
    <g
       transform="translate(388.90873,-159.60411)"
       id="man3"
       inkscape:label="#g3768"
       inkscape:export-xdpi="90"
       inkscape:export-ydpi="90"
       style="stroke:none;fill:#d2d2d2;fill-opacity:1">
      <path
         d="m 245.71429,242.36218 a 32.857143,35.714287 0 1 1 -65.71429,0 32.857143,35.714287 0 1 1 65.71429,0 z"
         sodipodi:ry="35.714287"
         sodipodi:rx="32.857143"
         sodipodi:cy="242.36218"
         sodipodi:cx="212.85715"
         id="path3150"
         style="fill:#d2d2d2;fill-opacity:1;fill-rule:evenodd;stroke:none"
         sodipodi:type="arc"
         transform="matrix(0.8673222,-0.49774713,0.60333523,1.051309,-108.89284,89.978136)" />
      <path
         d="m 268.57143,358.07648 c 0,56.80643 -26.22332,102.85714 -58.57143,102.85714 -32.34811,0 -58.57143,-46.05071 -58.57143,-102.85714 0,-56.80643 26.22332,-102.85714 58.57143,-102.85714 32.34811,0 58.57143,46.05071 58.57143,102.85714 z"
         sodipodi:ry="102.85714"
         sodipodi:rx="58.57143"
         sodipodi:cy="358.07648"
         sodipodi:cx="210"
         id="path3152"
         style="fill:#d2d2d2;fill-opacity:1;fill-rule:evenodd;stroke:none"
         sodipodi:type="arc"
         transform="matrix(0.77579542,0,0,0.68573031,46.07281,147.88793)" />
      <path
         transform="translate(5.7142857,-25.714286)"
         d="m 197.14286,535.2193 c 0,50.49461 -10.23349,91.42857 -22.85714,91.42857 -12.62365,0 -22.85714,-40.93396 -22.85714,-91.42857 0,-50.49461 10.23349,-91.42857 22.85714,-91.42857 12.62365,0 22.85714,40.93396 22.85714,91.42857 z"
         sodipodi:ry="91.428574"
         sodipodi:rx="22.857143"
         sodipodi:cy="535.2193"
         sodipodi:cx="174.28572"
         id="path3154"
         style="fill:#d2d2d2;fill-opacity:1;fill-rule:evenodd;stroke:none"
         sodipodi:type="arc" />
      <path
         transform="matrix(-0.68595061,-0.7276481,0.7276481,-0.68595061,248.61186,740.18262)"
         d="m 300.00001,369.50504 a 21.428572,71.428574 0 1 1 -42.85714,0 21.428572,71.428574 0 1 1 42.85714,0 z"
         sodipodi:ry="71.428574"
         sodipodi:rx="21.428572"
         sodipodi:cy="369.50504"
         sodipodi:cx="278.57144"
         id="path3156"
         style="fill:#d2d2d2;fill-opacity:1;fill-rule:evenodd;stroke:none"
         sodipodi:type="arc" />
      <path
         transform="matrix(0.83180269,-0.55507142,0.55507142,0.83180269,-126.53326,89.518194)"
         d="m 168.57143,332.36218 c 0,11.0457 -16.62942,20 -37.14286,20 -20.51343,0 -37.142853,-8.9543 -37.142853,-20 0,-11.04569 16.629423,-20 37.142853,-20 20.51344,0 37.14286,8.95431 37.14286,20 z"
         sodipodi:ry="20"
         sodipodi:rx="37.142857"
         sodipodi:cy="332.36218"
         sodipodi:cx="131.42857"
         id="path3158"
         style="fill:#d2d2d2;fill-opacity:1;fill-rule:evenodd;stroke:none"
         sodipodi:type="arc" />
      <path
         sodipodi:type="arc"
         style="fill:#d2d2d2;fill-opacity:1;fill-rule:evenodd;stroke:none"
         id="path3160"
         sodipodi:cx="131.42857"
         sodipodi:cy="332.36218"
         sodipodi:rx="37.142857"
         sodipodi:ry="20"
         d="m 168.57143,332.36218 c 0,11.0457 -16.62942,20 -37.14286,20 -20.51343,0 -37.142853,-8.9543 -37.142853,-20 0,-11.04569 16.629423,-20 37.142853,-20 20.51344,0 37.14286,8.95431 37.14286,20 z"
         transform="matrix(0.64371632,0.7652642,-0.7652642,0.64371632,432.98078,-14.42777)"
         inkscape:transform-center-x="-7.0710678"
         inkscape:transform-center-y="-31.211469" />
      <path
         sodipodi:type="arc"
         style="fill:#d2d2d2;fill-opacity:1;fill-rule:evenodd;stroke:none"
         id="path3162"
         sodipodi:cx="278.57144"
         sodipodi:cy="369.50504"
         sodipodi:rx="21.428572"
         sodipodi:ry="71.428574"
         d="m 300.00001,369.50504 a 21.428572,71.428574 0 1 1 -42.85714,0 21.428572,71.428574 0 1 1 42.85714,0 z"
         transform="matrix(0.99420386,0.10751124,-0.10751124,0.99420386,-99.734145,-18.340125)" />
      <path
         sodipodi:type="arc"
         style="fill:#d2d2d2;fill-opacity:1;fill-rule:evenodd;stroke:none"
         id="path3164"
         sodipodi:cx="131.42857"
         sodipodi:cy="332.36218"
         sodipodi:rx="37.142857"
         sodipodi:ry="20"
         d="m 168.57143,332.36218 c 0,11.0457 -16.62942,20 -37.14286,20 -20.51343,0 -37.142853,-8.9543 -37.142853,-20 0,-11.04569 16.629423,-20 37.142853,-20 20.51344,0 37.14286,8.95431 37.14286,20 z"
         transform="matrix(-0.82933994,-0.55507142,-0.553428,0.83180269,552.21579,399.63503)" />
      <path
         inkscape:transform-center-y="-26.470098"
         inkscape:transform-center-x="-17.985806"
         transform="matrix(0.31961076,0.94754893,-0.94754893,0.31961076,456.16306,379.14268)"
         d="m 168.57143,332.36218 a 37.142857,20 0 1 1 -74.285713,0 37.142857,20 0 1 1 74.285713,0 z"
         sodipodi:ry="20"
         sodipodi:rx="37.142857"
         sodipodi:cy="332.36218"
         sodipodi:cx="131.42857"
         id="path3166"
         style="fill:#d2d2d2;fill-opacity:1;fill-rule:evenodd;stroke:none"
         sodipodi:type="arc" />
      <path
         sodipodi:type="arc"
         style="fill:#d2d2d2;fill-opacity:1;fill-rule:evenodd;stroke:none"
         id="path3168"
         sodipodi:cx="174.28572"
         sodipodi:cy="535.2193"
         sodipodi:rx="22.857143"
         sodipodi:ry="91.428574"
         d="m 197.14286,535.2193 c 0,50.49461 -10.23349,91.42857 -22.85714,91.42857 -12.62365,0 -22.85714,-40.93396 -22.85714,-91.42857 0,-50.49461 10.23349,-91.42857 22.85714,-91.42857 12.62365,0 22.85714,40.93396 22.85714,91.42857 z"
         transform="translate(65.313286,-21.673676)" />
      <path
         transform="matrix(1,0,0,0.68573031,2.0203051,79.197554)"
         sodipodi:type="arc"
         style="fill:#d2d2d2;fill-opacity:1;fill-rule:evenodd;stroke:none"
         id="path3170"
         sodipodi:cx="210"
         sodipodi:cy="358.07648"
         sodipodi:rx="58.57143"
         sodipodi:ry="102.85714"
         d="m 268.57143,358.07648 a 58.57143,102.85714 0 1 1 -117.14286,0 58.57143,102.85714 0 1 1 117.14286,0 z" />
    </g>
    <g
       style="fill:#d2d2d2;fill-opacity:1;stroke:none"
       inkscape:export-ydpi="90"
       inkscape:export-xdpi="90"
       transform="matrix(0.44525088,0.89540586,-0.89540586,0.44525088,546.80345,405.464)"
       inkscape:label="#g3768"
       id="body1">
      <path
         transform="matrix(0.92490932,0.38018779,-0.46083779,1.1211122,141.55766,-112.45759)"
         sodipodi:type="arc"
         style="fill:#d2d2d2;fill-opacity:1;fill-rule:evenodd;stroke:none"
         id="path3942"
         sodipodi:cx="212.85715"
         sodipodi:cy="242.36218"
         sodipodi:rx="32.857143"
         sodipodi:ry="35.714287"
         d="m 245.71429,242.36218 a 32.857143,35.714287 0 1 1 -65.71429,0 32.857143,35.714287 0 1 1 65.71429,0 z" />
      <path
         transform="matrix(0.77579542,0,0,0.68573031,46.07281,147.88793)"
         sodipodi:type="arc"
         style="fill:#d2d2d2;fill-opacity:1;fill-rule:evenodd;stroke:none"
         id="path3944"
         sodipodi:cx="210"
         sodipodi:cy="358.07648"
         sodipodi:rx="58.57143"
         sodipodi:ry="102.85714"
         d="m 268.57143,358.07648 c 0,56.80643 -26.22332,102.85714 -58.57143,102.85714 -32.34811,0 -58.57143,-46.05071 -58.57143,-102.85714 0,-56.80643 26.22332,-102.85714 58.57143,-102.85714 32.34811,0 58.57143,46.05071 58.57143,102.85714 z" />
      <path
         sodipodi:type="arc"
         style="fill:#d2d2d2;fill-opacity:1;fill-rule:evenodd;stroke:none"
         id="path3946"
         sodipodi:cx="174.28572"
         sodipodi:cy="535.2193"
         sodipodi:rx="22.857143"
         sodipodi:ry="91.428574"
         d="m 197.14286,535.2193 c 0,50.49461 -10.23349,91.42857 -22.85714,91.42857 -12.62365,0 -22.85714,-40.93396 -22.85714,-91.42857 0,-50.49461 10.23349,-91.42857 22.85714,-91.42857 12.62365,0 22.85714,40.93396 22.85714,91.42857 z"
         transform="translate(5.7142857,-25.714286)" />
      <path
         sodipodi:type="arc"
         style="fill:#d2d2d2;fill-opacity:1;fill-rule:evenodd;stroke:none"
         id="path3948"
         sodipodi:cx="278.57144"
         sodipodi:cy="369.50504"
         sodipodi:rx="21.428572"
         sodipodi:ry="71.428574"
         d="m 300.00001,369.50504 a 21.428572,71.428574 0 1 1 -42.85714,0 21.428572,71.428574 0 1 1 42.85714,0 z"
         transform="matrix(0.98122833,-0.19284956,0.19284956,0.98122833,-46.74818,63.950419)" />
      <path
         sodipodi:type="arc"
         style="fill:#d2d2d2;fill-opacity:1;fill-rule:evenodd;stroke:none"
         id="path3950"
         sodipodi:cx="131.42857"
         sodipodi:cy="332.36218"
         sodipodi:rx="37.142857"
         sodipodi:ry="20"
         d="m 168.57143,332.36218 c 0,11.0457 -16.62942,20 -37.14286,20 -20.51343,0 -37.142853,-8.9543 -37.142853,-20 0,-11.04569 16.629423,-20 37.142853,-20 20.51344,0 37.14286,8.95431 37.14286,20 z"
         transform="matrix(0.83180269,-0.55507142,0.55507142,0.83180269,-126.53326,89.518194)" />
      <path
         inkscape:transform-center-y="-31.211469"
         inkscape:transform-center-x="-7.0710678"
         transform="matrix(0.64371632,0.7652642,-0.7652642,0.64371632,440.65662,-16.251625)"
         d="m 168.57143,332.36218 a 37.142857,20 0 1 1 -74.285713,0 37.142857,20 0 1 1 74.285713,0 z"
         sodipodi:ry="20"
         sodipodi:rx="37.142857"
         sodipodi:cy="332.36218"
         sodipodi:cx="131.42857"
         id="path3952"
         style="fill:#d2d2d2;fill-opacity:1;fill-rule:evenodd;stroke:none"
         sodipodi:type="arc" />
      <path
         transform="matrix(0.99503004,0.09957514,-0.09957514,0.99503004,-99.866267,-24.51585)"
         d="m 300.00001,369.50504 c 0,39.44891 -9.59389,71.42857 -21.42857,71.42857 -11.83467,0 -21.42857,-31.97966 -21.42857,-71.42857 0,-39.44892 9.5939,-71.42858 21.42857,-71.42858 11.83468,0 21.42857,31.97966 21.42857,71.42858 z"
         sodipodi:ry="71.428574"
         sodipodi:rx="21.428572"
         sodipodi:cy="369.50504"
         sodipodi:cx="278.57144"
         id="path3954"
         style="fill:#d2d2d2;fill-opacity:1;fill-rule:evenodd;stroke:none"
         sodipodi:type="arc" />
      <path
         transform="matrix(0.83180269,-0.55507142,0.55507142,0.83180269,-129.56372,400.64518)"
         d="m 168.57143,332.36218 c 0,11.0457 -16.62942,20 -37.14286,20 -20.51343,0 -37.142853,-8.9543 -37.142853,-20 0,-11.04569 16.629423,-20 37.142853,-20 20.51344,0 37.14286,8.95431 37.14286,20 z"
         sodipodi:ry="20"
         sodipodi:rx="37.142857"
         sodipodi:cy="332.36218"
         sodipodi:cx="131.42857"
         id="path3956"
         style="fill:#d2d2d2;fill-opacity:1;fill-rule:evenodd;stroke:none"
         sodipodi:type="arc" />
      <path
         sodipodi:type="arc"
         style="fill:#d2d2d2;fill-opacity:1;fill-rule:evenodd;stroke:none"
         id="path3958"
         sodipodi:cx="131.42857"
         sodipodi:cy="332.36218"
         sodipodi:rx="37.142857"
         sodipodi:ry="20"
         d="m 168.57143,332.36218 a 37.142857,20 0 1 1 -74.285713,0 37.142857,20 0 1 1 74.285713,0 z"
         transform="matrix(-0.38363602,0.92348439,-0.92348439,-0.38363602,601.68668,614.66554)"
         inkscape:transform-center-x="-30.968157"
         inkscape:transform-center-y="-8.0702649" />
      <path
         transform="matrix(0.99281148,-0.11968864,0.11968864,0.99281148,10.187262,3.4686906)"
         d="m 197.14286,535.2193 a 22.857143,91.428574 0 1 1 -45.71428,0 22.857143,91.428574 0 1 1 45.71428,0 z"
         sodipodi:ry="91.428574"
         sodipodi:rx="22.857143"
         sodipodi:cy="535.2193"
         sodipodi:cx="174.28572"
         id="path3960"
         style="fill:#d2d2d2;fill-opacity:1;fill-rule:evenodd;stroke:none"
         sodipodi:type="arc" />
      <path
         d="m 268.57143,358.07648 c 0,56.80643 -26.22332,102.85714 -58.57143,102.85714 -32.34811,0 -58.57143,-46.05071 -58.57143,-102.85714 0,-56.80643 26.22332,-102.85714 58.57143,-102.85714 32.34811,0 58.57143,46.05071 58.57143,102.85714 z"
         sodipodi:ry="102.85714"
         sodipodi:rx="58.57143"
         sodipodi:cy="358.07648"
         sodipodi:cx="210"
         id="path3962"
         style="fill:#d2d2d2;fill-opacity:1;fill-rule:evenodd;stroke:none"
         sodipodi:type="arc"
         transform="matrix(1,0,0,0.68573031,1.0101526,80.207707)" />
    </g>
  </g>
</svg>
